<?xml version="1.0" encoding="us-ascii" standalone="no"?><svg xmlns="http://www.w3.org/2000/svg" xmlns:xlink="http://www.w3.org/1999/xlink" contentStyleType="text/css" height="284px" preserveAspectRatio="none" style="width:197px;height:284px;background:#FFFFFF;" version="1.1" viewBox="0 0 197 284" width="197px" zoomAndPan="magnify"><defs/><g><text fill="#000000" font-family="sans-serif" font-size="14" font-weight="bold" lengthAdjust="spacing" textLength="169" x="10" y="29.5332">Community Engagement</text><line style="stroke:#181818;stroke-width:0.5;stroke-dasharray:5.0,5.0;" x1="39.75" x2="39.75" y1="121.2188" y2="201.9219"/><line style="stroke:#181818;stroke-width:0.5;stroke-dasharray:5.0,5.0;" x1="122.25" x2="122.25" y1="121.2188" y2="201.9219"/><text fill="#000000" font-family="sans-serif" font-size="14" lengthAdjust="spacing" textLength="29" x="22.75" y="118.1426">User</text><ellipse cx="40.25" cy="52.1094" fill="#E2E2F0" rx="8" ry="8" style="stroke:#181818;stroke-width:0.5;"/><path d="M40.25,60.1094 L40.25,87.1094 M27.25,68.1094 L53.25,68.1094 M40.25,87.1094 L27.25,102.1094 M40.25,87.1094 L53.25,102.1094 " fill="none" style="stroke:#181818;stroke-width:0.5;"/><text fill="#000000" font-family="sans-serif" font-size="14" lengthAdjust="spacing" textLength="29" x="22.75" y="215.4551">User</text><ellipse cx="40.25" cy="227.0313" fill="#E2E2F0" rx="8" ry="8" style="stroke:#181818;stroke-width:0.5;"/><path d="M40.25,235.0313 L40.25,262.0313 M27.25,243.0313 L53.25,243.0313 M40.25,262.0313 L27.25,277.0313 M40.25,262.0313 L53.25,277.0313 " fill="none" style="stroke:#181818;stroke-width:0.5;"/><rect fill="#E2E2F0" height="31.6094" rx="2.5" ry="2.5" style="stroke:#181818;stroke-width:0.5;" width="90" x="77.25" y="88.6094"/><text fill="#000000" font-family="sans-serif" font-size="14" lengthAdjust="spacing" textLength="76" x="84.25" y="110.1426">New System</text><rect fill="#E2E2F0" height="31.6094" rx="2.5" ry="2.5" style="stroke:#181818;stroke-width:0.5;" width="90" x="77.25" y="200.9219"/><text fill="#000000" font-family="sans-serif" font-size="14" lengthAdjust="spacing" textLength="76" x="84.25" y="222.4551">New System</text><polygon fill="#181818" points="110.25,149.5703,120.25,153.5703,110.25,157.5703,114.25,153.5703" style="stroke:#181818;stroke-width:1.0;"/><line style="stroke:#181818;stroke-width:1.0;" x1="40.25" x2="116.25" y1="153.5703" y2="153.5703"/><text fill="#000000" font-family="sans-serif" font-size="13" lengthAdjust="spacing" textLength="48" x="47.25" y="148.7139">Request</text><polygon fill="#181818" points="51.25,179.9219,41.25,183.9219,51.25,187.9219,47.25,183.9219" style="stroke:#181818;stroke-width:1.0;"/><line style="stroke:#181818;stroke-width:1.0;stroke-dasharray:2.0,2.0;" x1="45.25" x2="121.25" y1="183.9219" y2="183.9219"/><text fill="#000000" font-family="sans-serif" font-size="13" lengthAdjust="spacing" textLength="58" x="57.25" y="179.0654">Response</text><!--SRC=[BOen2iCm40JxUyNYtXz8aIQuJP6G1nncCOBefEZE6F_U4NOtmqoa-1AFalDgANPCjkZ2J0iHdQCqV9nDghP8SwfgWU793U_TWtc0-eKYVSHul_o65tyhFUHqZF_Kbnwy5dFA0G00]--></g></svg>